<?xml version="1.0" standalone="no"?>
<!DOCTYPE svg PUBLIC "-//W3C//DTD SVG 20010904//EN"
 "http://www.w3.org/TR/2001/REC-SVG-20010904/DTD/svg10.dtd">
<svg version="1.0" xmlns="http://www.w3.org/2000/svg"
 width="353.000000pt" height="519.000000pt" viewBox="0 0 353.000000 519.000000"
 preserveAspectRatio="xMidYMid meet">
<metadata>
Created by potrace 1.16, written by Peter Selinger 2001-2019
</metadata>
<g transform="translate(0.000000,519.000000) scale(0.100000,-0.100000)"
fill="#000000" stroke="none">
<path d="M1220 4898 c-63 -44 -161 -113 -217 -153 l-101 -73 -29 30 c-42 45
-96 76 -160 93 -76 20 -108 19 -189 -6 -57 -18 -77 -31 -129 -82 -73 -73 -99
-136 -98 -238 0 -115 69 -228 170 -279 64 -32 175 -40 239 -15 24 9 46 21 49
26 4 5 -6 4 -22 -2 -51 -20 -162 -15 -218 10 -148 66 -212 240 -141 384 110
227 442 199 513 -42 30 -104 4 -205 -75 -293 l-37 -42 53 29 c57 31 93 71 124
142 24 55 22 158 -6 210 l-16 32 80 48 c44 26 134 83 201 126 66 42 124 77
128 77 9 0 59 -106 95 -200 49 -132 114 -409 100 -431 -3 -5 -17 -9 -31 -9
-43 0 -251 -50 -342 -82 -114 -40 -241 -105 -318 -162 -35 -25 -63 -48 -63
-51 0 -3 25 11 56 31 147 94 417 178 641 200 l72 6 3 -63 3 -64 34 69 33 69
137 -6 c318 -15 603 -125 785 -304 56 -55 121 -142 112 -151 -3 -2 -379 -52
-836 -112 -457 -59 -833 -109 -835 -111 -2 -3 17 -182 24 -218 1 -2 23 -1 50
1 l49 5 6 -36 c3 -20 8 -69 12 -109 l7 -74 54 7 c51 6 53 6 53 -18 0 -13 3
-39 6 -56 7 -32 7 -32 54 -26 47 6 47 6 54 -26 3 -17 6 -42 6 -55 0 -13 1 -24
3 -24 1 0 87 11 191 25 104 14 193 25 198 25 5 0 8 26 7 58 -3 54 -2 57 22 60
72 8 72 8 65 67 l-6 54 50 7 c27 4 50 12 50 18 -1 6 -7 55 -14 109 -14 112
-27 98 103 116 41 5 78 8 82 6 3 -3 9 -33 13 -67 4 -35 9 -82 13 -106 l6 -44
48 7 c53 7 54 6 61 -70 3 -30 4 -30 54 -27 l51 4 6 -53 c4 -28 8 -53 9 -55 2
-1 92 9 201 24 l199 26 -7 58 -7 58 39 0 39 0 -7 -67 c-20 -190 -92 -332 -231
-458 -151 -136 -351 -217 -649 -260 -123 -17 -381 -20 -496 -4 -176 23 -388
94 -538 180 -97 54 -238 189 -287 274 -54 94 -124 286 -100 273 68 -37 113
-50 180 -54 l77 -5 -73 20 c-182 50 -284 157 -311 329 -19 121 21 245 107 331
61 61 129 96 216 112 114 21 248 -17 335 -96 48 -44 52 -36 12 26 -75 119
-203 169 -353 138 -189 -39 -337 -192 -368 -379 -20 -117 17 -251 96 -347 27
-33 40 -61 51 -116 39 -190 153 -368 312 -489 98 -74 247 -145 428 -203 1 -1
-24 -28 -55 -62 -68 -70 -163 -249 -182 -338 -10 -49 -10 -59 5 -75 15 -16 14
-29 -4 -166 -11 -82 -22 -186 -25 -230 l-6 -81 32 -23 c20 -13 42 -43 56 -75
31 -71 85 -123 139 -137 l44 -11 -1 -251 c-1 -201 1 -259 13 -293 9 -22 13
-43 11 -46 -12 -12 11 -59 32 -67 14 -6 24 -18 24 -30 0 -26 34 -60 61 -60 12
0 30 -11 41 -25 15 -20 28 -25 53 -23 22 1 42 -5 55 -17 18 -16 23 -17 48 -5
15 8 42 13 60 11 28 -2 39 4 73 41 56 60 80 116 80 187 1 53 3 58 20 54 10 -3
19 -14 19 -25 0 -32 45 -70 75 -62 19 5 25 2 25 -10 0 -26 47 -51 74 -38 18 8
25 6 34 -9 14 -23 55 -25 72 -4 9 11 17 12 30 5 10 -6 23 -10 28 -10 17 0 123
103 139 135 34 64 13 164 -54 253 l-24 32 29 78 c17 42 44 122 62 177 17 55
44 119 59 142 16 23 31 61 35 84 5 34 9 40 24 33 9 -5 38 -9 64 -9 80 0 122
56 143 190 7 44 19 95 26 113 13 30 11 37 -13 85 -15 29 -46 108 -69 177 -22
69 -48 138 -56 153 l-14 28 -43 -58 c-40 -53 -85 -99 -90 -91 -1 2 -7 26 -12
55 l-10 52 53 53 54 53 25 -28 c18 -21 24 -24 24 -11 0 20 -101 183 -130 209
-11 10 -20 21 -20 25 0 4 34 24 76 46 148 76 288 210 358 343 58 110 78 198
81 346 l3 130 27 3 28 4 -8 86 c-13 146 -16 137 30 140 22 2 43 7 48 11 6 6
-6 138 -19 199 -5 22 -8 23 -67 17 l-62 -7 -17 49 c-36 100 -139 201 -246 243
-30 11 -89 23 -131 27 -60 5 -92 14 -151 43 -176 88 -364 133 -557 134 l-133
1 0 64 c0 99 -79 332 -177 523 -53 104 -78 138 -101 138 -9 -1 -69 -37 -132
-82z m1339 -887 c67 -21 145 -74 184 -125 33 -43 73 -124 65 -132 -4 -3 -24
-8 -45 -11 -37 -4 -38 -4 -66 49 -28 55 -113 151 -182 206 -46 37 -39 39 44
13z m251 -413 c0 -18 3 -43 6 -55 6 -20 2 -23 -22 -23 -16 0 -40 -3 -52 -7
-22 -5 -24 -9 -17 -58 6 -49 5 -53 -17 -59 -13 -3 -35 -6 -50 -6 -25 0 -27 4
-33 53 l-7 53 -51 -1 -52 0 -6 49 c-6 53 -5 54 56 58 l40 3 5 -47 c3 -26 9
-50 12 -54 4 -3 27 -3 52 0 l45 7 -6 51 c-7 58 2 68 60 68 35 0 37 -2 37 -32z
m-1206 -169 c4 -29 3 -55 -1 -60 -4 -4 -26 -9 -48 -11 l-40 -3 3 -56 4 -56
-47 -7 c-26 -4 -48 -6 -50 -4 -1 2 -5 26 -9 55 l-7 52 51 7 51 7 -7 58 -6 58
38 4 c22 2 44 4 50 5 7 1 14 -20 18 -49z m737 -1056 c25 -27 56 -63 69 -81
l22 -33 -23 -27 c-30 -34 -51 -52 -60 -52 -4 0 -16 24 -28 53 -12 29 -37 78
-56 109 l-34 57 27 10 c15 5 29 10 32 10 3 1 26 -20 51 -46z m-135 -49 c122
-183 184 -458 170 -749 -3 -71 -10 -147 -15 -169 -20 -81 -126 -154 -286 -197
-67 -19 -109 -22 -260 -23 -188 -1 -229 5 -364 55 -96 35 -94 33 -71 79 30 58
47 143 75 365 14 110 36 243 50 295 13 52 23 96 21 98 -2 1 -25 -29 -52 -69
l-49 -71 -82 4 c-69 4 -93 10 -155 41 -122 61 -117 53 -71 149 46 95 109 183
153 214 l29 21 109 -21 c72 -14 117 -28 136 -43 31 -25 159 -68 228 -78 54 -7
158 9 203 32 16 9 49 36 72 60 36 39 66 55 115 62 4 1 24 -24 44 -55z m-1056
-351 c64 -39 126 -59 210 -69 60 -7 60 -7 60 -40 0 -18 -5 -36 -11 -40 -26
-16 -161 -22 -204 -9 -56 17 -115 48 -154 80 -34 29 -39 59 -20 114 11 32 11
32 38 14 14 -9 51 -32 81 -50z m985 -1011 c30 3 31 2 30 -37 -1 -36 -4 -41
-35 -52 -19 -7 -69 -12 -110 -12 -59 -1 -86 4 -127 24 -29 13 -53 28 -53 33 0
5 24 14 53 21 28 6 63 18 75 25 18 9 39 10 80 4 32 -5 71 -8 87 -6z m-771 -62
c6 0 19 -11 31 -25 15 -20 35 -28 85 -36 84 -13 142 -4 181 29 l32 26 -7 -25
c-4 -13 -10 -32 -13 -42 -5 -19 -95 -67 -125 -67 -25 0 -22 -16 5 -25 22 -8
22 -8 -3 -12 -56 -9 -70 -14 -70 -27 0 -9 15 -12 58 -9 l57 3 -44 -13 c-43
-12 -72 -39 -58 -53 3 -4 12 -2 20 4 7 6 43 14 79 18 85 9 98 16 74 43 -11 12
-16 21 -11 21 4 0 2 7 -5 15 -10 12 -9 15 7 15 26 0 54 -61 60 -130 3 -44 0
-62 -16 -88 -45 -71 -140 -92 -231 -51 -74 33 -78 41 -72 116 4 52 1 73 -13
99 -10 19 -22 34 -26 34 -4 0 -10 -21 -12 -47 -3 -41 -4 -38 -5 18 l-2 66 52
-13 c62 -17 95 -18 103 -4 3 6 -3 10 -14 10 -36 0 -132 41 -167 72 -30 27 -34
36 -34 79 l0 50 37 -26 c21 -14 42 -25 47 -25z m860 -67 c33 -97 12 -184 -53
-218 -34 -17 -126 -20 -165 -5 -17 6 -26 17 -26 31 0 46 -31 128 -55 143 -13
9 -26 16 -28 16 -3 0 2 -28 9 -62 15 -71 16 -84 8 -76 -3 3 -12 36 -19 73 -8
37 -21 78 -29 90 -15 22 -15 22 22 9 20 -7 70 -13 111 -14 61 0 72 -3 67 -15
-12 -32 93 -8 123 28 11 14 11 18 -3 23 -13 5 -14 9 -5 20 16 19 25 11 43 -43z"/>
<path d="M1943 2135 c-37 -16 -60 -47 -69 -95 l-7 -33 -19 23 c-13 16 -17 32
-13 52 6 26 5 27 -16 19 -40 -14 -61 -53 -63 -117 -3 -54 -5 -59 -31 -67 -23
-8 -31 -6 -42 9 -14 19 -15 19 -29 -1 -11 -14 -14 -34 -10 -67 3 -26 1 -50 -5
-53 -15 -10 -10 -57 10 -100 30 -63 128 -158 179 -173 122 -36 295 39 317 137
4 17 12 31 19 31 7 0 23 11 36 25 46 49 23 174 -42 230 -56 49 -55 50 -50 -18
l3 -62 -50 52 c-47 48 -51 55 -51 100 0 56 18 88 55 97 14 4 23 11 20 16 -9
15 -105 11 -142 -5z m-21 -268 c12 -11 49 -33 82 -49 l59 -30 -7 27 c-10 40
15 28 37 -18 16 -32 17 -44 8 -85 -6 -26 -13 -59 -16 -74 -3 -15 -21 -39 -42
-55 -30 -23 -46 -28 -93 -27 -69 1 -141 33 -171 76 -24 33 -35 105 -20 128 8
12 13 11 32 -5 21 -19 22 -19 16 -2 -26 71 -14 120 41 168 l37 32 6 -34 c4
-18 18 -42 31 -52z"/>
<path d="M2345 2922 c-144 -107 -210 -132 -360 -132 -103 0 -191 18 -266 55
-29 14 -54 23 -56 21 -2 -2 14 -19 37 -39 25 -21 71 -44 120 -61 195 -64 461
-13 569 111 33 36 69 110 58 119 -1 1 -47 -32 -102 -74z"/>
</g>
</svg>
